<svg id="visual" viewBox="0 0 900 600" width="900" height="600" xmlns="http://www.w3.org/2000/svg" xmlns:xlink="http://www.w3.org/1999/xlink" version="1.1"><rect x="0" y="0" width="900" height="600" fill="#F19A37"></rect><g transform="translate(439.7436315838594 249.55740126013262)"><path d="M117.6 -117.4C162.7 -102.2 216.8 -75 252.8 -22.2C288.8 30.7 306.8 109.1 278.3 162.8C249.8 216.5 174.8 245.4 115.4 228.9C55.9 212.3 11.9 150.2 -46.9 128.8C-105.7 107.4 -179.3 126.7 -224.5 103.1C-269.7 79.5 -286.5 13 -257.4 -26.9C-228.4 -66.8 -153.4 -80.1 -102.8 -94.4C-52.3 -108.6 -26.1 -123.8 5 -129.8C36.2 -135.8 72.4 -132.6 117.6 -117.4" fill="#e07109"></path></g></svg>